<svg width="145" height="33" viewBox="0 0 145 33" fill="none" xmlns="http://www.w3.org/2000/svg">
  <path fill-rule="evenodd" clip-rule="evenodd" d="M60.709 24.189h4.186c1.183 0 2.206-.182 3.07-.546.879-.364 1.553-.88 2.023-1.546.47-.667.705-1.448.705-2.342 0-.985-.258-1.819-.773-2.501-.515-.697-1.25-1.182-2.206-1.455.804-.288 1.425-.75 1.865-1.387.44-.637.66-1.372.66-2.206 0-1.288-.5-2.311-1.501-3.07-.733-.554-1.653-.906-2.76-1.055l-1.058 3.234c.306.064.556.164.748.3.38.258.569.66.569 1.205 0 .53-.182.917-.546 1.16-.364.242-.94.364-1.728.364h-.034l-1.056 3.228h1.522c.834 0 1.425.13 1.773.387.35.257.523.697.523 1.319 0 .606-.181 1.038-.545 1.296-.349.257-.933.386-1.751.386h-2.63l-1.056 3.229zm19.827.204c-2.364 0-4.153-.59-5.365-1.773-1.213-1.198-1.82-2.948-1.82-5.252V8h4.161v9.527c0 1.167.258 2.061.773 2.683.531.621 1.281.932 2.251.932.955 0 1.69-.31 2.206-.932.515-.637.773-1.531.773-2.683V8h4.206v9.368c0 2.273-.621 4.016-1.864 5.23-1.228 1.197-3.001 1.795-5.32 1.795zM91.148 8v16.189h4.275V8h-4.275zm7.826 16.189V8h4.275v12.733h6.843v3.456H98.974zM119.39 8h-6.616v16.189h6.616c1.804 0 3.35-.319 4.638-.955 1.304-.652 2.297-1.584 2.979-2.797.682-1.228 1.023-2.683 1.023-4.365 0-1.668-.349-3.108-1.046-4.32-.682-1.213-1.675-2.138-2.978-2.774-1.289-.652-2.827-.978-4.616-.978zm3.229 11.619c-.773.773-1.948 1.16-3.525 1.16h-2.046V11.41h2.046c3.138 0 4.707 1.553 4.707 4.66 0 1.577-.394 2.76-1.182 3.547z" fill="#1D1D1D"></path><path fill-rule="evenodd" clip-rule="evenodd" d="M56.214 8H45.05v16.189h5.87l1.071-3.274h-2.78v-3.32h3.866l1.07-3.274H49.21v-3.047h5.933L56.214 8zm-.434 12.915l-1.071 3.274h1.89v-3.274h-.82zM42.693 8h-4.047l-3.479 10.39L31.688 8h-2.91l-3.615 10.209L21.843 8h-4.342l5.775 16.189h3.388l3.456-9.618 3.387 9.618h3.388L42.693 8z" fill="#34785C"></path><path d="M59.868 6h3.79l-6.869 21H53l6.868-21z" fill="#1D1D1D"></path><path d="M8.807 16l6.776-6.776-2.476-2.463-9.23 9.24 9.24 9.239 2.465-2.465L8.807 16z" fill="#000"></path><g clip-path="url(#clip0)"><path d="M136.193 16l-6.776 6.776 2.476 2.463 9.23-9.24-9.24-9.239-2.465 2.465L136.193 16z" fill="#000"></path></g><defs><clipPath id="clip0"><path transform="rotate(-180 145 26)" fill="#fff" d="M145 26h20v20h-20z"></path></clipPath></defs>
</svg>